{
    "asset" : {
        "generator" : "Khronos glTF Blender I/O v1.7.33",
        "version" : "2.0"
    },
    "extensionsUsed" : [
        "KHR_materials_clearcoat"
    ],
    "scene" : 0,
    "scenes" : [
        {
            "name" : "Scene",
            "nodes" : [
                0,
                1,
                2,
                3
            ]
        }
    ],
    "nodes" : [
        {
            "mesh" : 0,
            "name" : "guarda chuva",
            "rotation" : [
                0,
                0,
                0.7071067690849304,
                0.7071068286895752
            ],
            "translation" : [
                -0.27133646607398987,
                -0.2713364362716675,
                0
            ]
        },
        {
            "mesh" : 1,
            "name" : "parte q segura o cabo no guarda chuva",
            "rotation" : [
                0,
                0,
                0.7071067690849304,
                0.7071068286895752
            ],
            "translation" : [
                -0.8713364601135254,
                -0.2713363766670227,
                0
            ]
        },
        {
            "mesh" : 2,
            "name" : "arma\u00e7\u00e3o",
            "rotation" : [
                0,
                0,
                -0.7071067690849304,
                0.7071068286895752
            ],
            "scale" : [
                0.6050000190734863,
                0.6050000190734863,
                0.6050000190734863
            ],
            "translation" : [
                -0.16133646667003632,
                -0.27133646607398987,
                0
            ]
        },
        {
            "mesh" : 3,
            "name" : "Cylinder",
            "rotation" : [
                0,
                0,
                0.7071067690849304,
                0.7071068286895752
            ],
            "scale" : [
                -0.02937317080795765,
                -1.8547694683074951,
                -0.02937317080795765
            ],
            "translation" : [
                0.8713364601135254,
                -0.27133655548095703,
                0
            ]
        }
    ],
    "materials" : [
        {
            "doubleSided" : true,
            "name" : "Material.001",
            "pbrMetallicRoughness" : {
                "baseColorFactor" : [
                    1,
                    1,
                    1,
                    0.800000011920929
                ],
                "metallicFactor" : 0,
                "roughnessFactor" : 0.5
            }
        },
        {
            "doubleSided" : true,
            "name" : "Material",
            "pbrMetallicRoughness" : {
                "metallicFactor" : 0
            }
        },
        {
            "doubleSided" : true,
            "extensions" : {
                "KHR_materials_clearcoat" : {
                    "clearcoatFactor" : 0.10000000149011612,
                    "clearcoatRoughnessFactor" : 0.029999999329447746
                }
            },
            "name" : "Material.002",
            "pbrMetallicRoughness" : {
                "metallicFactor" : 0,
                "roughnessFactor" : 0.8404254913330078
            }
        }
    ],
    "meshes" : [
        {
            "name" : "Circle",
            "primitives" : [
                {
                    "attributes" : {
                        "POSITION" : 0,
                        "NORMAL" : 1,
                        "TEXCOORD_0" : 2
                    },
                    "indices" : 3,
                    "material" : 0
                },
                {
                    "attributes" : {
                        "POSITION" : 4,
                        "NORMAL" : 5,
                        "TEXCOORD_0" : 6
                    },
                    "indices" : 7,
                    "material" : 1
                }
            ]
        },
        {
            "name" : "Cylinder.001",
            "primitives" : [
                {
                    "attributes" : {
                        "POSITION" : 8,
                        "NORMAL" : 9,
                        "TEXCOORD_0" : 10
                    },
                    "indices" : 11,
                    "material" : 2
                }
            ]
        },
        {
            "name" : "Cone.001",
            "primitives" : [
                {
                    "attributes" : {
                        "POSITION" : 12,
                        "NORMAL" : 13,
                        "TEXCOORD_0" : 14
                    },
                    "indices" : 15,
                    "material" : 1
                }
            ]
        },
        {
            "name" : "Cylinder.002",
            "primitives" : [
                {
                    "attributes" : {
                        "POSITION" : 16,
                        "NORMAL" : 17,
                        "TEXCOORD_0" : 18
                    },
                    "indices" : 19,
                    "material" : 1
                }
            ]
        }
    ],
    "accessors" : [
        {
            "bufferView" : 0,
            "componentType" : 5126,
            "count" : 192,
            "max" : [
                1.998031497001648,
                0.5993334650993347,
                1.998031497001648
            ],
            "min" : [
                -1.9980311393737793,
                -1.7113052308559418e-08,
                -1.9980309009552002
            ],
            "type" : "VEC3"
        },
        {
            "bufferView" : 1,
            "componentType" : 5126,
            "count" : 192,
            "type" : "VEC3"
        },
        {
            "bufferView" : 2,
            "componentType" : 5126,
            "count" : 192,
            "type" : "VEC2"
        },
        {
            "bufferView" : 3,
            "componentType" : 5123,
            "count" : 384,
            "type" : "SCALAR"
        },
        {
            "bufferView" : 4,
            "componentType" : 5126,
            "count" : 896,
            "max" : [
                1.9988470077514648,
                0.6013333797454834,
                1.9988470077514648
            ],
            "min" : [
                -1.9988466501235962,
                -0.024301934987306595,
                -1.998846411705017
            ],
            "type" : "VEC3"
        },
        {
            "bufferView" : 5,
            "componentType" : 5126,
            "count" : 896,
            "type" : "VEC3"
        },
        {
            "bufferView" : 6,
            "componentType" : 5126,
            "count" : 896,
            "type" : "VEC2"
        },
        {
            "bufferView" : 7,
            "componentType" : 5123,
            "count" : 1920,
            "type" : "SCALAR"
        },
        {
            "bufferView" : 8,
            "componentType" : 5126,
            "count" : 192,
            "max" : [
                0.1499999612569809,
                0.025000035762786865,
                0.1499999612569809
            ],
            "min" : [
                -0.1499999612569809,
                -0.025000035762786865,
                -0.1499999612569809
            ],
            "type" : "VEC3"
        },
        {
            "bufferView" : 9,
            "componentType" : 5126,
            "count" : 192,
            "type" : "VEC3"
        },
        {
            "bufferView" : 10,
            "componentType" : 5126,
            "count" : 192,
            "type" : "VEC2"
        },
        {
            "bufferView" : 11,
            "componentType" : 5123,
            "count" : 372,
            "type" : "SCALAR"
        },
        {
            "bufferView" : 12,
            "componentType" : 5126,
            "count" : 6139,
            "max" : [
                1.0094774961471558,
                -0.17181812226772308,
                1.0094774961471558
            ],
            "min" : [
                -1.0094774961471558,
                -1.003189206123352,
                -1.0094774961471558
            ],
            "type" : "VEC3"
        },
        {
            "bufferView" : 13,
            "componentType" : 5126,
            "count" : 6139,
            "type" : "VEC3"
        },
        {
            "bufferView" : 14,
            "componentType" : 5126,
            "count" : 6139,
            "type" : "VEC2"
        },
        {
            "bufferView" : 15,
            "componentType" : 5123,
            "count" : 9216,
            "type" : "SCALAR"
        },
        {
            "bufferView" : 16,
            "componentType" : 5126,
            "count" : 60,
            "max" : [
                1.039230465888977,
                1.0013790130615234,
                1.1999999284744263
            ],
            "min" : [
                -1.039230465888977,
                -0.9934780597686768,
                -1.1999999284744263
            ],
            "type" : "VEC3"
        },
        {
            "bufferView" : 17,
            "componentType" : 5126,
            "count" : 60,
            "type" : "VEC3"
        },
        {
            "bufferView" : 18,
            "componentType" : 5126,
            "count" : 60,
            "type" : "VEC2"
        },
        {
            "bufferView" : 19,
            "componentType" : 5123,
            "count" : 96,
            "type" : "SCALAR"
        }
    ],
    "bufferViews" : [
        {
            "buffer" : 0,
            "byteLength" : 2304,
            "byteOffset" : 0
        },
        {
            "buffer" : 0,
            "byteLength" : 2304,
            "byteOffset" : 2304
        },
        {
            "buffer" : 0,
            "byteLength" : 1536,
            "byteOffset" : 4608
        },
        {
            "buffer" : 0,
            "byteLength" : 768,
            "byteOffset" : 6144
        },
        {
            "buffer" : 0,
            "byteLength" : 10752,
            "byteOffset" : 6912
        },
        {
            "buffer" : 0,
            "byteLength" : 10752,
            "byteOffset" : 17664
        },
        {
            "buffer" : 0,
            "byteLength" : 7168,
            "byteOffset" : 28416
        },
        {
            "buffer" : 0,
            "byteLength" : 3840,
            "byteOffset" : 35584
        },
        {
            "buffer" : 0,
            "byteLength" : 2304,
            "byteOffset" : 39424
        },
        {
            "buffer" : 0,
            "byteLength" : 2304,
            "byteOffset" : 41728
        },
        {
            "buffer" : 0,
            "byteLength" : 1536,
            "byteOffset" : 44032
        },
        {
            "buffer" : 0,
            "byteLength" : 744,
            "byteOffset" : 45568
        },
        {
            "buffer" : 0,
            "byteLength" : 73668,
            "byteOffset" : 46312
        },
        {
            "buffer" : 0,
            "byteLength" : 73668,
            "byteOffset" : 119980
        },
        {
            "buffer" : 0,
            "byteLength" : 49112,
            "byteOffset" : 193648
        },
        {
            "buffer" : 0,
            "byteLength" : 18432,
            "byteOffset" : 242760
        },
        {
            "buffer" : 0,
            "byteLength" : 720,
            "byteOffset" : 261192
        },
        {
            "buffer" : 0,
            "byteLength" : 720,
            "byteOffset" : 261912
        },
        {
            "buffer" : 0,
            "byteLength" : 480,
            "byteOffset" : 262632
        },
        {
            "buffer" : 0,
            "byteLength" : 192,
            "byteOffset" : 263112
        }
    ],
    "buffers" : [
        {
            "byteLength" : 263304,
            "uri" : "data:application/octet-stream;base64,"
        }
    ]
}
